REM MD5 7dffa266d556589457c8157d60e1f7f5
FILE "Official U.S. PlayStation Magazine Demo Disc 40 (USA).bin" BINARY
  TRACK 01 MODE2/2352
    INDEX 01 00:00:00
  TRACK 02 AUDIO
    INDEX 00 25:51:26
    INDEX 01 25:53:26
  TRACK 03 AUDIO
    INDEX 00 27:03:45
    INDEX 01 27:05:45
REM LEADOUT 27:11:41
